<?xml version="1.0" standalone="no"?>
<!DOCTYPE svg PUBLIC "-//W3C//DTD SVG 20010904//EN"
 "http://www.w3.org/TR/2001/REC-SVG-20010904/DTD/svg10.dtd">
<svg version="1.0" xmlns="http://www.w3.org/2000/svg"
 width="1024.000000pt" height="604.000000pt" viewBox="0 0 1024.000000 604.000000"
 preserveAspectRatio="xMidYMid meet">

<g transform="translate(0.000000,604.000000) scale(0.100000,-0.100000)"
fill="#000000" stroke="none">
<path d="M3900 6019 l-35 -21 30 6 c17 2 53 11 80 20 l50 15 -45 0 c-27 0 -59
-8 -80 -20z"/>
<path d="M4183 6026 c0 -11 6 -12 29 -4 16 6 37 8 48 5 11 -3 18 -1 14 4 -9
15 -91 11 -91 -5z"/>
<path d="M4625 6030 c4 -6 11 -8 16 -5 14 9 11 15 -7 15 -8 0 -12 -5 -9 -10z"/>
<path d="M4020 6002 c19 -9 35 -24 35 -32 0 -11 12 -15 45 -15 25 0 44 -4 43
-10 -1 -6 45 -10 120 -10 82 0 129 -4 142 -13 17 -11 2 -12 -92 -9 -62 2 -113
0 -113 -5 0 -4 11 -8 24 -8 27 0 177 -130 210 -183 l20 -29 -25 7 c-22 7 -23
7 -9 -11 7 -10 -8 2 -36 29 -28 26 -59 47 -71 47 -12 0 -24 4 -27 9 -4 5 11 7
34 4 24 -4 40 -2 40 5 0 11 -23 22 -47 22 -8 0 -29 6 -46 14 -18 8 -41 16 -52
18 -13 2 -19 10 -17 21 2 10 -1 16 -5 15 -5 -2 -19 7 -31 18 -23 22 -28 23
-232 41 l-65 5 20 -21 c16 -16 38 -22 100 -28 51 -4 72 -9 60 -14 -16 -5 -17
-8 -5 -11 8 -3 29 -10 47 -15 17 -6 44 -8 59 -5 19 3 25 1 20 -7 -4 -6 -13
-11 -20 -11 -8 0 -19 -7 -26 -15 -14 -17 -55 -11 -80 11 -24 20 -108 55 -180
75 -36 9 -57 18 -46 18 14 1 16 4 7 14 -8 11 -5 17 17 27 53 26 -6 23 -96 -4
-171 -52 -196 -61 -226 -81 -39 -26 -85 -109 -86 -153 0 -18 10 -52 22 -75 41
-80 17 -174 -56 -218 -34 -21 -86 -25 -103 -8 -8 8 -13 8 -17 0 -12 -18 3 -31
35 -31 42 0 115 -68 119 -112 8 -94 -8 -161 -51 -216 -10 -14 -19 -34 -18 -46
1 -18 2 -17 9 5 7 25 35 70 69 111 11 14 17 15 28 7 18 -16 27 -5 15 18 -5 10
-13 56 -16 103 -7 85 7 181 32 226 9 16 11 14 10 -13 -1 -17 9 -52 21 -77 11
-25 21 -52 21 -59 0 -22 47 -80 55 -67 8 12 30 -14 65 -77 13 -24 31 -43 40
-43 9 0 22 -6 29 -12 10 -11 11 -9 5 7 -7 18 -6 18 9 6 9 -7 15 -16 13 -20 -2
-3 16 -18 40 -33 43 -26 44 -27 33 -5 -10 19 31 -23 114 -118 l26 -30 1 35 c0
20 -7 63 -16 95 -9 33 -18 71 -19 84 -2 13 -8 28 -14 34 -6 6 -11 20 -11 30 0
16 3 17 15 7 8 -7 15 -20 15 -29 0 -10 7 -26 15 -37 17 -23 19 -38 4 -28 -6 3
-4 -7 4 -22 18 -36 31 -237 18 -279 -8 -25 -9 -26 -10 -7 -1 26 1 26 -44 7
-20 -8 -59 -15 -87 -15 -41 0 -56 5 -75 25 -14 13 -25 20 -25 15 0 -21 45 -50
77 -50 18 0 33 -5 33 -11 0 -8 -12 -10 -35 -6 -33 5 -34 5 -24 -16 14 -25 14
-136 1 -149 -17 -17 -95 38 -174 120 -77 81 -92 111 -103 205 -8 68 -25 66
-25 -4 0 -46 -3 -51 -42 -79 -37 -27 -39 -30 -17 -30 49 -1 105 -38 183 -121
83 -90 100 -115 122 -188 17 -57 17 -59 0 -36 -13 18 -14 17 -21 -13 -4 -20
-22 -45 -45 -64 l-38 -33 29 -12 c16 -7 29 -19 29 -27 0 -17 -79 -95 -97 -96
-23 0 -24 -20 0 -20 13 0 42 17 67 39 24 21 75 55 114 75 58 30 81 36 126 35
l55 -1 -46 -8 c-25 -4 -65 -16 -89 -26 l-42 -19 147 3 c80 2 169 9 196 16 27
7 49 9 49 5 0 -26 -156 -90 -270 -110 -74 -14 -122 -31 -109 -40 28 -17 -183
-48 -378 -56 -145 -6 -203 0 -203 22 0 24 92 94 153 117 33 12 55 24 48 26 -6
2 -30 -3 -52 -12 -52 -21 -52 -21 -32 10 16 24 16 27 0 38 -14 11 -9 15 31 29
26 10 73 17 105 17 31 0 57 2 57 5 0 30 -315 239 -482 320 l-132 64 -19 51
c-22 61 -34 62 -13 2 8 -23 15 -49 15 -59 1 -10 3 -51 6 -91 17 -276 40 -403
89 -501 47 -91 75 -114 205 -167 66 -27 118 -51 116 -55 -3 -3 17 -26 43 -50
27 -24 51 -52 55 -61 3 -9 19 -25 34 -34 15 -9 42 -33 59 -52 38 -42 60 -38
92 18 12 22 27 40 32 40 15 0 12 -9 -20 -67 -16 -29 -30 -59 -30 -67 0 -16
-56 -12 -77 6 -7 6 -24 8 -38 6 -14 -3 -28 -2 -30 2 -3 5 -29 11 -58 15 -58 8
-55 8 -153 28 -53 12 -78 23 -101 45 -23 23 -35 29 -58 25 l-28 -6 22 -16 c21
-16 21 -16 -7 -16 -29 -1 -112 67 -112 92 0 19 29 28 43 14 14 -14 47 -15 47
-1 0 6 -5 10 -11 10 -13 0 -101 51 -97 56 2 2 32 -3 66 -10 48 -10 66 -10 79
-1 14 10 13 15 -11 38 -15 15 -36 32 -48 38 -19 10 -20 14 -7 22 13 8 9 21
-26 88 -22 43 -43 79 -47 79 -5 0 -8 -19 -8 -42 0 -55 -25 -172 -47 -223 -9
-22 -30 -60 -46 -84 -33 -48 -36 -43 46 -88 26 -14 45 -28 43 -30 -2 -3 -14 1
-26 7 -13 7 -20 8 -16 2 3 -6 1 -14 -5 -18 -6 -3 24 -26 71 -51 45 -25 79 -47
76 -50 -2 -3 -31 10 -63 29 -32 19 -92 51 -133 71 l-76 37 -53 -25 c-58 -29
-80 -28 -32 1 27 16 47 42 39 49 -2 2 -55 31 -118 65 -63 35 -160 87 -215 117
-55 30 -163 88 -240 128 l-140 74 -130 -29 c-72 -16 -155 -36 -185 -44 -30 -8
-86 -24 -125 -34 -261 -71 -325 -88 -450 -123 -77 -21 -162 -42 -189 -46 -47
-8 -50 -10 -69 -56 -11 -26 -17 -51 -13 -54 4 -4 50 -6 104 -5 103 2 132 -3
132 -20 0 -6 -26 -43 -58 -82 -81 -99 -164 -212 -197 -269 -21 -37 -31 -46
-46 -42 -15 5 -19 1 -19 -20 0 -18 -6 -29 -20 -32 -11 -3 -20 -10 -20 -15 0
-5 -9 -7 -19 -3 -14 4 -23 -1 -32 -17 l-12 -23 -8 30 c-6 20 -4 32 4 37 9 6 9
10 -1 20 -6 6 -12 21 -12 32 0 22 49 90 50 69 0 -15 50 -18 50 -3 0 6 -8 10
-19 10 -14 0 -20 10 -25 43 -5 32 0 61 23 127 36 106 74 194 84 198 4 2 7 10
7 18 0 14 132 279 236 474 l56 105 -48 -51 c-99 -105 -191 -221 -247 -311 -31
-51 -57 -95 -57 -97 0 -2 -15 -29 -34 -60 -18 -31 -51 -99 -71 -151 -25 -62
-48 -104 -67 -120 -22 -19 -28 -32 -28 -65 0 -22 -8 -52 -17 -67 l-17 -26 -13
29 c-7 18 -12 22 -13 12 0 -25 -25 -22 -49 4 -22 23 -37 80 -27 97 4 6 -3 24
-15 40 -24 33 -24 31 -20 381 3 222 17 410 41 545 21 114 81 328 111 393 16
36 29 68 29 71 -1 27 -117 -164 -149 -244 -59 -149 -140 -512 -148 -660 -3
-60 -10 -115 -15 -122 -5 -7 -6 -18 -2 -24 5 -9 2 -10 -12 -5 -53 22 -58 21
-51 -14 4 -18 7 -35 7 -39 0 -4 14 -21 30 -39 19 -21 30 -44 30 -63 0 -16 -2
-29 -5 -29 -12 0 -104 204 -189 415 l-36 90 0 -62 c0 -94 70 -291 164 -461 44
-79 46 -83 30 -107 -13 -20 -14 -31 -5 -56 13 -39 7 -49 -16 -26 -18 18 -42
95 -43 139 0 38 -10 58 -27 58 -12 0 -14 -8 -9 -37 15 -101 18 -153 9 -153
-19 0 -45 51 -39 75 5 19 1 25 -26 34 -17 6 -33 11 -34 11 -2 0 -4 -53 -4
-118 0 -114 1 -119 26 -143 24 -22 26 -23 36 -6 9 16 13 15 49 -18 44 -39 43
-39 69 -25 15 8 25 2 57 -38 57 -68 57 -69 31 -105 -54 -72 -113 -190 -158
-317 -27 -74 -62 -173 -79 -219 l-31 -84 0 -586 0 -587 50 -49 c57 -56 60 -75
38 -206 l-11 -71 -39 4 -38 4 0 -538 0 -538 29 0 c40 0 218 -37 264 -55 32
-13 150 -15 817 -15 l779 0 92 53 c108 62 379 263 464 345 33 32 83 77 111
100 50 41 54 42 122 42 215 0 659 -90 699 -142 23 -30 86 -256 91 -326 l5 -72
1228 0 c676 0 1229 2 1229 5 0 9 -88 166 -133 236 -23 37 -60 87 -82 110 -22
24 -71 89 -108 144 -37 55 -84 122 -104 148 l-36 49 134 -3 c74 -2 172 0 219
4 l85 7 -40 -19 c-22 -11 -35 -20 -29 -20 6 -1 83 12 170 29 180 34 177 34
169 20 -20 -32 -222 -110 -286 -110 -11 0 -18 -4 -15 -9 3 -5 34 -11 68 -13
55 -4 66 -2 91 19 16 12 35 23 43 23 13 0 102 59 131 86 6 6 31 14 54 18 23 4
91 20 152 37 61 17 113 27 118 22 10 -10 -112 -118 -190 -169 -38 -24 -56 -31
-61 -23 -6 9 -20 9 -56 0 -27 -6 -75 -13 -107 -17 -89 -9 -58 -25 34 -18 51 5
79 3 79 -3 0 -6 -14 -13 -32 -17 -17 -3 -28 -9 -25 -12 14 -14 79 10 165 61
103 60 173 95 312 154 157 66 243 106 280 129 19 12 43 22 53 22 32 0 231 51
275 71 28 12 65 19 107 19 55 0 66 -3 75 -21 7 -11 9 -26 7 -33 -6 -16 -202
-132 -285 -169 -81 -36 -178 -57 -271 -57 -56 0 -72 -3 -64 -11 13 -13 50 -10
258 16 72 9 175 20 230 24 65 5 119 16 155 30 30 12 116 38 190 57 161 41 179
47 251 90 31 19 84 40 118 48 34 8 73 22 86 30 13 9 31 16 40 16 9 0 33 9 55
20 22 11 48 20 58 20 10 0 40 11 65 24 26 13 50 20 52 16 3 -5 19 -11 35 -15
42 -9 83 -46 105 -95 l19 -42 180 3 c173 3 183 2 225 -20 35 -18 64 -24 140
-27 89 -4 188 -22 321 -60 87 -25 97 -26 61 -7 -19 10 -33 23 -32 28 5 29 229
57 272 35 15 -8 21 -7 25 4 5 13 12 11 42 -8 21 -13 70 -43 110 -66 40 -23 89
-56 109 -73 l36 -31 -43 57 c-24 31 -46 57 -51 57 -4 0 -41 34 -82 75 -54 54
-82 75 -100 75 -38 0 -57 -10 -57 -30 0 -10 -7 -21 -16 -24 -20 -8 -86 10
-136 35 -50 25 -60 24 -52 -6 5 -21 2 -25 -23 -30 -15 -3 -44 -10 -64 -15 -65
-18 -95 -12 -145 26 -26 20 -68 46 -93 57 -26 11 -57 28 -71 39 -21 15 -31 16
-63 7 -35 -9 -43 -8 -75 14 -44 29 -180 103 -169 91 4 -5 42 -31 85 -59 78
-51 103 -85 62 -85 -19 0 -108 24 -253 66 -60 18 -202 44 -244 44 -17 0 -34 3
-37 8 -2 4 38 30 89 57 l93 49 83 -31 c46 -18 84 -31 86 -29 1 1 -31 20 -72
41 -41 21 -75 39 -75 40 0 8 189 78 250 94 41 11 100 27 130 36 30 10 100 30
155 45 55 15 131 37 169 49 44 13 95 21 143 21 41 0 111 7 156 15 254 45 428
51 548 20 31 -8 60 -15 63 -15 11 0 7 510 -5 532 -8 15 -8 19 0 14 14 -9 15
88 1 114 -5 10 -43 43 -84 74 -44 33 -94 83 -122 121 -27 37 -50 62 -52 56 -5
-16 23 -62 72 -120 26 -29 58 -74 73 -100 14 -25 36 -57 47 -70 20 -24 20 -24
1 -16 -11 5 -42 10 -70 13 -36 3 -60 12 -87 33 -21 17 -86 55 -145 85 -88 45
-123 70 -191 137 -46 45 -95 103 -108 130 -27 52 -60 65 -66 24 -6 -42 -46
-33 -217 53 -128 64 -164 87 -176 110 -19 36 -24 38 -18 6 3 -15 22 -36 45
-51 32 -21 37 -29 28 -40 -19 -23 -5 -42 47 -59 57 -19 113 -52 113 -66 0 -31
-298 20 -411 71 -62 27 -211 120 -307 191 -77 56 -79 105 -4 110 l47 3 -77 38
c-52 26 -87 37 -109 35 l-32 -3 26 -31 c15 -18 27 -40 27 -49 0 -40 55 -116
126 -174 39 -33 85 -77 101 -98 35 -47 83 -94 153 -153 48 -41 52 -42 35 -15
-10 17 -34 49 -53 73 -19 24 -32 45 -29 48 8 8 85 -22 144 -57 31 -19 82 -57
113 -86 58 -53 160 -193 160 -219 0 -8 8 -26 17 -41 l17 -26 -29 6 c-93 17
-125 32 -143 66 -10 19 -34 46 -53 60 -24 19 -29 20 -17 6 9 -11 20 -33 24
-49 6 -26 5 -28 -17 -21 -13 4 -42 20 -64 35 -51 34 -115 63 -122 56 -3 -3 2
-8 11 -12 23 -9 20 -23 -7 -35 -19 -9 -59 2 -231 60 -114 39 -233 85 -264 102
-111 62 -127 69 -153 69 -14 0 -55 13 -91 29 -63 29 -66 29 -124 16 -32 -8
-131 -26 -219 -40 -88 -15 -227 -40 -308 -56 -82 -17 -193 -33 -248 -36 -54
-3 -99 -9 -99 -14 0 -4 19 -13 42 -21 59 -18 71 -58 37 -120 -28 -51 -58 -59
-122 -33 -22 9 -66 21 -96 26 -49 9 -212 53 -248 66 -7 3 -13 0 -13 -6 0 -10
15 -15 135 -45 150 -37 272 -76 348 -113 45 -22 98 -48 118 -57 48 -23 121
-85 116 -100 -5 -14 35 -72 75 -108 31 -27 30 -56 -1 -42 -9 5 -144 8 -301 9
l-285 0 -125 51 c-69 28 -137 53 -152 56 -58 11 -21 -27 65 -65 60 -27 85 -60
64 -85 -15 -19 -1 -28 88 -52 95 -25 129 -45 215 -125 l65 -60 3 29 c2 16 -1
33 -7 39 -37 37 31 142 107 165 62 19 211 15 315 -8 133 -30 167 -41 167 -57
0 -8 -44 -35 -97 -61 -86 -41 -107 -47 -176 -51 -77 -3 -78 -4 -73 -27 7 -27
-9 -38 -70 -48 -23 -3 -74 -20 -114 -37 -74 -31 -102 -35 -443 -56 -95 -6
-104 1 -142 94 -14 36 -47 93 -73 126 -26 33 -74 96 -107 142 -33 45 -77 97
-98 115 -21 19 -57 60 -80 92 -23 33 -52 73 -64 89 -28 39 -47 152 -33 199 13
45 13 174 0 225 -11 40 -20 70 -101 335 -90 294 -185 488 -280 574 l-53 47 19
72 c10 40 24 86 32 104 8 18 12 36 9 42 -4 5 3 12 14 16 18 6 20 15 20 76 0
66 1 70 20 64 18 -6 20 -2 21 52 0 32 4 83 9 113 44 277 54 521 24 568 -22 33
-44 28 -45 -10 l-1 -33 -8 35 c-4 19 -11 65 -14 103 -3 37 -10 75 -16 85 -5 9
-19 54 -30 99 -25 102 -75 219 -129 302 -22 35 -41 62 -41 60 0 -2 12 -36 26
-74 80 -212 122 -467 107 -650 -6 -79 -6 -79 -19 -45 -7 19 -13 46 -13 60 -1
14 -15 45 -31 70 -16 25 -30 52 -30 60 -1 12 -3 11 -11 -3 -6 -9 -8 -26 -4
-36 3 -11 2 -22 -4 -25 -5 -3 -7 -16 -4 -29 11 -42 -5 -12 -38 73 -52 137
-124 282 -158 320 l-32 35 36 -67 c39 -73 95 -229 126 -353 11 -44 26 -105 33
-135 8 -30 22 -113 32 -185 10 -71 19 -132 20 -134 2 -2 10 2 19 9 12 10 15
10 15 -4 0 -9 -8 -16 -19 -16 -16 0 -17 -6 -13 -49 3 -31 -2 -67 -11 -96 -12
-33 -13 -53 -7 -71 12 -31 12 -34 2 -34 -5 0 -14 19 -21 43 -22 74 -123 286
-129 269 -2 -6 9 -34 23 -62 15 -29 24 -54 22 -56 -2 -3 -25 38 -50 90 -44 91
-142 243 -215 335 -34 41 -142 134 -150 127 -1 -2 17 -32 41 -67 65 -95 141
-227 177 -310 18 -41 43 -96 55 -124 35 -78 58 -154 59 -201 1 -24 5 -47 9
-50 4 -4 7 -22 7 -41 0 -40 -26 -45 -56 -12 -19 21 -19 22 3 15 34 -11 37 12
6 47 -15 18 -53 80 -83 139 -53 105 -75 136 -45 65 19 -46 19 -53 0 -37 -8 7
-12 16 -9 21 3 5 -2 6 -10 3 -15 -6 -51 48 -39 60 3 3 -1 14 -9 23 -14 16 -61
193 -71 268 -2 17 -5 -18 -6 -77 0 -59 3 -129 8 -155 21 -105 21 -114 8 -108
-6 4 27 -31 76 -77 48 -46 87 -87 87 -90 0 -14 -53 13 -72 37 -35 45 -199 175
-258 205 -69 35 -114 41 -60 9 87 -54 334 -315 347 -368 7 -30 102 -201 112
-201 3 0 18 -11 33 -25 l27 -25 -35 -67 c-50 -94 -58 -100 -50 -33 l7 55 -44
-57 c-35 -45 -48 -72 -58 -122 -12 -60 -29 -81 -29 -35 0 11 -7 22 -16 26 -23
9 -83 -23 -94 -49 -5 -13 -9 -17 -9 -10 -1 7 6 28 13 47 17 40 14 42 -22 16
-15 -10 -64 -38 -109 -61 -45 -23 -87 -48 -94 -56 -6 -8 -22 -14 -34 -14 -14
0 -46 -22 -81 -54 l-58 -53 -87 -6 c-66 -5 -96 -3 -123 8 -19 8 -47 15 -60 15
-14 0 -29 6 -33 14 -4 7 -19 19 -33 26 -19 10 -114 88 -184 151 -9 8 25 54
111 147 l49 53 125 -31 c154 -40 184 -46 234 -54 l39 -5 -29 18 c-17 10 -67
48 -113 84 -45 36 -101 76 -122 88 -22 13 -40 25 -40 28 1 13 78 143 123 209
51 76 118 142 142 142 9 0 15 -9 15 -24 0 -52 17 -33 24 25 3 34 15 82 26 107
34 77 165 279 193 296 20 13 23 46 3 46 -15 0 -48 -51 -97 -150 -32 -65 -122
-168 -175 -201 -19 -12 -37 -19 -39 -17 -4 4 43 144 88 258 46 118 97 301 97
348 0 28 6 52 17 64 10 12 12 18 4 18 -19 0 -3 155 22 213 22 53 58 87 91 87
33 0 46 -19 46 -65 0 -42 -39 -110 -109 -190 -26 -29 -26 -29 12 3 28 24 47
32 77 32 45 0 47 4 53 100 2 30 15 83 30 117 23 56 23 62 7 53 -39 -21 -71
-11 -111 33 -24 25 -38 49 -35 60 2 10 -1 17 -9 17 -19 0 -33 51 -41 143 -11
121 19 160 81 105 36 -31 53 -32 42 -4 -4 9 -21 22 -40 29 -18 8 -46 30 -60
48 l-27 34 0 -50 c0 -55 -21 -95 -49 -95 -23 0 -91 68 -91 90 0 10 -6 33 -13
51 -18 45 -11 123 14 145 21 18 103 30 143 20 14 -3 33 -19 41 -34 15 -26 16
-23 10 58 -4 46 -13 96 -20 110 l-14 25 -1 -28 c0 -35 -15 -63 -39 -77 -21
-11 -82 9 -113 38 -11 9 -18 11 -18 4 0 -23 -50 -12 -83 18 -19 16 -36 27 -39
25 -2 -3 -22 14 -44 37 l-39 41 40 -29 39 -29 -23 33 c-12 18 -26 54 -30 80
l-6 47 -47 -3 c-26 -2 -62 2 -81 9 -25 9 -39 9 -53 1 -16 -9 -25 -5 -54 21
-19 18 -28 24 -21 15 10 -14 9 -20 -8 -37 -25 -25 -29 -26 -52 -5 -14 12 -22
13 -38 5 -15 -8 -33 -8 -66 0 -56 14 -67 29 -23 30 l33 1 -30 8 c-16 4 -55 8
-85 8 l-55 1 35 -17z m363 -161 c31 -19 49 -41 33 -41 -10 0 -96 52 -106 65
-9 11 -7 12 12 7 13 -4 40 -18 61 -31z m-733 -20 c0 -5 -7 -11 -14 -14 -8 -3
-33 -44 -56 -91 -35 -74 -44 -86 -65 -86 -68 0 11 155 95 189 32 13 40 13 40
2z m172 -53 c-17 -17 -47 9 -30 29 10 12 13 12 27 -1 11 -12 12 -19 3 -28z
m417 18 c9 -11 6 -12 -14 -8 -14 2 -22 8 -19 13 8 13 20 11 33 -5z m-189 -16
c8 -5 11 -10 5 -10 -5 0 -17 5 -25 10 -8 5 -10 10 -5 10 6 0 17 -5 25 -10z
m385 -10 c10 -11 16 -20 13 -20 -3 0 -13 9 -23 20 -10 11 -16 20 -13 20 3 0
13 -9 23 -20z m-280 -20 c28 -10 41 -18 30 -18 -11 0 -42 8 -70 18 -27 10 -41
18 -30 18 11 0 43 -8 70 -18z m121 -18 c-10 -2 -22 0 -28 6 -6 6 0 7 19 4 21
-5 23 -7 9 -10z m-166 -17 c18 -21 -13 -31 -48 -16 -21 10 -23 14 -11 22 21
13 45 11 59 -6z m-101 -21 c37 -19 37 -19 -9 -28 -45 -7 -69 6 -51 28 17 20
20 20 60 0z m300 -50 c30 -8 71 -11 91 -8 27 4 40 2 50 -11 14 -16 10 -17 -50
-11 -99 11 -165 25 -186 42 -18 13 -17 14 11 8 17 -4 54 -13 84 -20z m-135 -3
c5 -8 -93 -21 -158 -21 -42 0 -26 10 31 20 67 11 121 12 127 1z m-52 -63 c-17
-8 -26 -8 -34 0 -9 9 -4 12 23 11 32 0 33 -1 11 -11z m131 -25 c9 -8 -22 -43
-37 -43 -6 0 -17 4 -25 9 -12 8 -12 12 -2 25 14 16 52 22 64 9z m87 -93 c0 -5
-4 -10 -10 -10 -5 0 -10 5 -10 10 0 6 5 10 10 10 6 0 10 -4 10 -10z m-480 -20
c0 -5 -4 -10 -10 -10 -5 0 -10 5 -10 10 0 6 5 10 10 10 6 0 10 -4 10 -10z
m412 -12 c-9 -9 -15 -9 -24 0 -9 9 -7 12 12 12 19 0 21 -3 12 -12z m-212 -94
c0 -8 -4 -12 -10 -9 -5 3 -10 13 -10 21 0 8 5 12 10 9 6 -3 10 -13 10 -21z
m778 -49 c-3 -4 -16 9 -28 27 l-23 33 28 -27 c16 -15 26 -30 23 -33z m-238
-231 c-14 -67 -26 -76 -38 -27 -5 21 -14 58 -20 83 -9 39 -8 47 11 71 12 14
29 36 37 48 14 21 15 17 18 -50 2 -39 -2 -96 -8 -125z m89 94 c12 -68 21 -242
13 -255 -4 -6 -24 -12 -46 -15 l-38 -4 7 35 c4 20 11 59 16 86 6 28 13 85 16
128 3 42 9 77 13 77 5 0 13 -24 19 -52z m-660 -58 c24 -30 39 -40 60 -40 29 0
57 -21 44 -33 -3 -4 -14 -7 -24 -7 -24 0 -55 -47 -63 -96 l-7 -41 53 10 c29 6
72 11 96 11 27 0 41 5 38 12 -4 9 102 70 109 62 22 -22 95 -131 95 -141 0 -6
-9 -23 -19 -36 l-18 -23 -99 15 c-54 9 -100 14 -103 11 -11 -11 16 -19 100
-30 50 -7 93 -15 96 -17 17 -18 -165 -227 -197 -227 -23 0 -85 72 -122 142
-22 40 -28 64 -28 114 0 36 -4 64 -10 64 -18 0 -10 94 13 139 l22 44 -42 42
c-40 40 -54 65 -35 65 5 0 23 -18 41 -40z m431 -81 c0 -33 -4 -59 -10 -59 -16
0 -80 44 -80 55 0 14 73 74 83 68 4 -2 7 -31 7 -64z m367 -136 c-3 -10 -5 -4
-5 12 0 17 2 24 5 18 2 -7 2 -21 0 -30z m-899 -117 c92 -59 130 -113 112 -161
-23 -60 -130 -13 -185 81 -24 41 -32 84 -18 97 13 14 55 6 91 -17z m682 -112
c37 -62 53 -124 74 -285 17 -131 4 -195 -60 -305 -26 -44 -27 -44 -46 -27 -17
16 -19 28 -16 110 3 84 5 94 31 120 31 33 34 43 12 43 -25 0 -35 36 -35 125 0
54 -4 84 -10 80 -6 -4 -7 -40 -3 -94 5 -81 4 -92 -22 -149 -46 -103 -234 -265
-324 -279 -20 -4 -39 -10 -42 -15 -3 -5 -30 -4 -60 3 -30 6 -64 13 -76 15 -21
4 -19 8 26 68 26 34 51 78 55 96 6 34 22 60 37 60 5 0 6 -7 2 -16 -3 -9 -1
-19 6 -23 9 -6 9 -16 1 -37 -10 -29 -10 -29 18 6 15 19 47 57 72 85 55 61 103
135 126 195 10 25 31 61 48 80 17 19 56 72 85 118 29 45 57 82 60 82 4 0 22
-25 41 -56z m-725 -64 c0 -22 -29 -18 -33 3 -3 14 1 18 15 15 10 -2 18 -10 18
-18z m614 -427 c-29 -39 -53 -63 -63 -63 -5 0 8 18 29 40 41 42 57 52 34 23z
m-814 -34 c22 -11 69 -38 105 -59 36 -21 87 -46 113 -56 27 -9 51 -23 54 -31
4 -9 10 -10 24 -2 30 16 123 -15 167 -56 34 -30 37 -38 36 -86 -1 -47 -4 -56
-37 -86 -20 -18 -41 -33 -46 -33 -5 0 -29 16 -53 36 l-43 37 -6 -41 c-8 -59
-19 -64 -19 -9 0 25 -5 49 -11 52 -7 5 -8 32 -4 79 l6 71 -68 29 c-37 16 -81
34 -97 41 -16 7 -35 11 -42 8 -17 -6 -184 64 -212 90 l-24 22 24 6 c45 13 94
9 133 -12z m-200 -15 c9 -9 14 -18 11 -21 -5 -5 -66 25 -66 32 0 12 40 3 55
-11z m985 -111 c20 -42 21 -56 15 -137 -8 -95 -15 -113 -52 -127 -12 -4 -31
-26 -42 -47 -30 -58 -45 -68 -77 -47 -24 16 -26 21 -20 68 4 27 14 63 22 78
19 37 18 39 -10 39 -20 0 -23 -4 -19 -21 7 -26 -17 -129 -30 -129 -5 0 -22 9
-38 21 -28 20 -29 21 -14 57 9 20 27 47 41 60 14 12 21 22 16 22 -18 0 -22 31
-11 74 7 30 26 58 59 91 42 42 52 47 79 42 17 -4 33 -2 36 3 10 16 21 4 45
-47z m-753 -33 c27 0 42 -29 32 -62 -5 -17 -13 -36 -19 -42 -8 -8 -9 -6 -4 7
7 19 -20 57 -41 57 -7 0 -20 -9 -30 -20 -10 -11 -14 -20 -10 -20 5 0 5 -3 2
-7 -4 -3 -14 2 -23 13 -13 16 -15 16 -10 2 3 -11 -2 -22 -14 -28 -18 -10 -20
-7 -20 22 0 18 -3 43 -6 55 -6 20 -2 22 42 26 27 2 58 2 69 1 11 -2 25 -4 32
-4z m-2510 -113 c-25 -51 -43 -95 -40 -99 2 -5 24 -8 48 -8 24 0 46 -4 49 -9
3 -4 -7 -28 -23 -53 -30 -47 -94 -99 -176 -142 -27 -15 -58 -37 -67 -49 -34
-43 -17 0 28 73 26 41 73 126 106 189 98 188 112 213 116 201 2 -6 -16 -53
-41 -103z m2656 -187 c-13 -5 -23 -16 -23 -25 0 -14 2 -14 24 0 13 8 31 13 40
9 20 -7 21 -24 2 -24 -7 0 -19 -6 -26 -14 -6 -8 -18 -12 -27 -9 -13 5 -15 0
-11 -27 4 -26 1 -34 -14 -38 -10 -2 -18 -8 -18 -13 0 -4 -14 -25 -32 -45 l-32
-36 -123 4 c-68 3 -126 8 -130 11 -14 15 11 21 82 19 80 -1 93 8 45 33 -16 9
-30 17 -30 19 0 3 -2 11 -5 19 -5 10 1 13 24 9 21 -3 38 -16 57 -43 15 -21 31
-39 37 -39 10 0 -1 17 -37 57 -11 13 -17 26 -13 29 9 10 47 -6 47 -21 0 -7 8
-23 18 -36 l19 -22 37 28 c31 24 37 33 33 55 -3 14 -3 45 0 68 5 41 7 42 42
41 32 0 33 -1 14 -9z m-1205 -67 c56 -17 96 -23 119 -20 20 4 45 1 57 -5 12
-6 31 -12 44 -13 19 -1 23 3 19 23 -8 42 24 20 74 -50 44 -61 46 -67 31 -81
-23 -20 -46 -16 -202 31 -74 22 -165 48 -203 58 -88 22 -80 29 14 10 40 -9 74
-14 76 -12 2 2 -7 6 -21 10 -14 3 -27 14 -31 25 -4 12 -25 24 -65 35 -33 9
-60 19 -60 22 0 8 53 -4 148 -33z m703 -60 c6 -16 13 -23 17 -17 16 26 50 25
79 -1 l28 -26 -37 7 c-31 5 -39 3 -45 -12 -17 -46 -37 -39 -64 23 -23 54 -23
53 -4 53 9 0 20 -12 26 -27z m-1884 -15 c6 -5 13 -32 15 -61 4 -46 -1 -62 -44
-147 -38 -74 -57 -100 -83 -114 l-33 -18 51 -52 c29 -28 63 -74 77 -101 14
-28 34 -63 44 -79 14 -21 16 -31 8 -34 -8 -2 -12 -26 -12 -63 0 -42 -3 -58
-11 -53 -6 4 -41 7 -78 7 -55 1 -62 3 -39 11 78 28 52 204 -45 305 -45 46
-115 96 -124 87 -3 -3 17 -19 45 -36 27 -17 57 -42 66 -55 21 -31 15 -31 -33
1 -33 21 -43 24 -60 14 -12 -6 -26 -8 -31 -5 -5 3 -7 -24 -3 -67 4 -55 13 -90
39 -143 20 -41 30 -73 25 -78 -5 -5 -24 -12 -43 -16 -29 -7 -37 -4 -68 30 -20
21 -48 41 -63 44 -36 9 -50 37 -42 85 8 46 -27 198 -55 245 -18 28 -64 75 -75
75 -13 0 -2 -25 30 -67 33 -43 43 -72 29 -86 -9 -9 -84 31 -90 48 -3 7 -12 11
-20 8 -19 -7 -19 31 1 51 8 8 15 23 15 33 0 10 17 41 38 69 20 27 45 61 54 74
10 14 15 17 12 8 -4 -11 -1 -18 6 -18 30 0 123 34 148 54 80 65 87 67 217 60
66 -3 125 -10 132 -16z m630 -85 c-14 -26 -44 -66 -68 -88 l-42 -40 35 45 c19
25 48 66 63 92 37 60 44 55 12 -9z m-1633 -5 c6 -32 4 -37 -9 -32 -15 6 -21
54 -8 67 9 9 9 8 17 -35z m2609 11 c25 -14 37 -28 37 -47 0 -10 -5 -10 -20 -2
-10 6 -23 9 -27 8 -4 0 -21 2 -36 7 -27 7 -27 8 -11 26 20 22 28 23 57 8z
m952 -73 c41 -17 41 -20 15 -53 l-20 -26 0 32 c0 46 -18 38 -22 -11 -2 -23 -9
-43 -15 -46 -10 -3 -13 13 -13 57 0 66 3 69 55 47z m-402 -123 c4 -3 3 -11 -2
-17 -5 -6 -11 -22 -13 -35 -6 -46 -28 -36 -28 13 0 38 3 46 18 46 10 0 22 -3
25 -7z m47 -43 c0 -5 -9 -14 -20 -20 -17 -9 -20 -8 -20 10 0 13 7 20 20 20 11
0 20 -4 20 -10z m-1553 -120 c13 -31 22 -66 20 -79 -3 -14 0 -33 6 -42 9 -14
4 -31 -22 -83 -18 -36 -38 -66 -43 -66 -12 0 -8 18 16 73 28 64 8 41 -30 -35
-20 -40 -51 -91 -69 -113 -18 -22 -44 -64 -59 -92 -14 -29 -33 -53 -41 -53
-15 0 -45 -49 -45 -74 0 -26 -78 -133 -113 -155 -43 -26 -75 -28 -73 -3 0 9
-6 17 -14 17 -10 0 -16 -12 -18 -39 -2 -22 -13 -52 -25 -67 -12 -14 -30 -39
-39 -55 -10 -16 -33 -54 -53 -84 -27 -44 -34 -65 -35 -106 0 -64 -20 -86 -50
-59 -15 13 -24 15 -31 8 -8 -8 3 -40 41 -116 62 -126 63 -151 5 -155 -60 -5
-245 49 -311 90 -60 38 -191 94 -266 113 -38 10 -68 21 -68 25 0 4 11 32 24
62 23 52 27 56 88 77 34 13 112 48 171 79 104 53 135 79 223 180 25 28 42 36
114 51 114 24 145 39 211 102 50 48 60 64 84 139 16 47 43 118 61 159 l34 73
-26 -17 c-25 -16 -25 -16 -15 4 6 11 36 41 67 68 86 73 131 121 166 177 17 28
39 59 47 69 15 18 16 18 29 0 8 -10 25 -43 39 -73z m508 -41 c15 -15 -13 -10
-45 6 -17 9 -30 17 -30 20 0 6 63 -16 75 -26z m-70 -67 c-17 -15 -59 -41 -95
-57 -36 -16 -92 -46 -125 -67 -33 -20 -62 -33 -64 -27 -10 29 12 78 48 107 41
33 154 68 226 71 l40 1 -30 -28z m215 -2 c11 -11 25 -17 32 -15 7 3 27 -4 43
-16 l30 -21 -30 5 c-52 9 -146 48 -140 58 10 16 44 10 65 -11z m1391 -7 c13
-16 12 -17 -3 -4 -17 13 -22 21 -14 21 2 0 10 -8 17 -17z m-1471 -39 c38 -43
30 -54 -40 -54 -44 0 -70 13 -70 35 0 9 57 53 71 54 4 1 21 -15 39 -35z m1096
-45 c19 -21 19 -21 -8 -8 -15 6 -25 16 -22 20 7 12 8 12 30 -12z m-1399 -55
c3 -8 0 -26 -7 -39 -17 -32 -169 -190 -176 -183 -3 3 9 27 25 53 17 26 33 67
37 92 5 36 13 48 43 68 41 29 69 32 78 9z m1443 -10 c0 -2 -9 0 -20 6 -11 6
-20 13 -20 16 0 2 9 0 20 -6 11 -6 20 -13 20 -16z m-1785 -261 c-7 -57 -24
-75 -50 -53 -25 21 -18 69 18 113 30 39 32 40 35 17 2 -13 1 -48 -3 -77z
m1115 74 c16 -19 16 -21 -2 -39 -14 -14 -33 -18 -95 -18 -79 0 -111 9 -99 28
3 6 23 13 44 17 20 3 48 12 61 19 35 19 72 16 91 -7z m8 -179 c27 -121 27
-118 14 -151 -7 -16 -13 -52 -14 -80 l-1 -52 -6 45 c-7 44 -7 44 -12 -24 -3
-39 -10 -71 -16 -73 -6 -2 -44 -28 -84 -59 l-73 -54 -12 29 c-18 43 -64 50
-112 18 -68 -47 -139 -121 -151 -159 -10 -32 -22 -42 -76 -69 -36 -17 -71 -29
-79 -26 -8 3 -47 -6 -88 -19 -48 -17 -112 -28 -188 -34 -195 -16 -187 -18
-247 52 -71 82 -81 118 -58 228 30 147 84 230 213 325 48 36 112 74 142 86 71
27 278 73 399 89 111 14 99 22 166 -110 24 -47 55 -105 70 -130 l27 -45 -6
153 -5 152 88 0 89 0 20 -92z m1237 63 c90 -41 127 -46 174 -28 23 9 63 17 89
17 81 0 121 10 115 29 -4 11 -1 10 10 -4 9 -11 17 -24 17 -28 0 -5 29 -38 64
-75 35 -37 99 -105 142 -152 42 -47 93 -91 111 -99 25 -10 40 -27 60 -68 25
-53 25 -60 19 -172 -4 -64 -7 -120 -7 -126 -1 -5 2 -52 6 -102 l8 -93 -146 0
c-149 0 -292 15 -314 32 -15 12 -83 111 -103 148 -8 16 2 10 30 -20 l44 -45 7
40 c5 29 2 53 -11 85 -10 25 -30 83 -45 130 -15 47 -32 91 -37 98 -13 15 -138
99 -161 108 -10 3 -17 13 -17 20 0 8 -17 51 -39 97 -49 106 -93 245 -74 235 4
-2 30 -14 58 -27z m3592 -66 c147 -11 191 -25 363 -111 91 -46 177 -96 192
-111 46 -48 64 -128 34 -152 -8 -7 -82 -17 -166 -23 -149 -11 -151 -12 -146
-34 6 -22 5 -22 -167 -29 -249 -10 -575 7 -672 35 -40 12 -185 90 -217 118
-36 30 -16 149 30 180 34 23 187 66 312 87 183 31 335 52 347 49 7 -2 47 -6
90 -9z m1302 -61 c69 -31 137 -65 152 -76 15 -12 35 -18 43 -15 28 11 199
-119 336 -254 81 -81 92 -94 73 -97 -15 -2 -34 8 -57 32 -30 29 -86 56 -119
56 -4 0 -25 11 -46 26 -29 19 -49 24 -84 23 -38 -2 -58 5 -124 43 -43 25 -112
58 -153 74 -61 24 -89 42 -153 104 -43 41 -93 92 -110 114 l-31 39 74 -6 c62
-5 97 -17 199 -63z m-3464 -211 c18 -16 53 -44 79 -63 58 -44 118 -126 186
-255 29 -55 72 -134 95 -175 54 -95 84 -185 67 -202 -8 -8 -66 -12 -181 -12
l-169 -1 -6 55 c-6 46 -69 228 -121 345 -7 17 -23 54 -35 83 l-23 52 21 64
c12 37 19 78 16 99 -4 32 -2 37 17 37 12 0 36 -12 54 -27z m-367 -43 c3 -28
17 -47 66 -95 l63 -60 26 -110 c14 -60 30 -132 37 -160 6 -27 15 -75 20 -105
4 -30 13 -67 18 -81 14 -34 9 -39 -36 -33 -35 5 -324 62 -349 69 -8 3 -8 13 2
42 20 59 27 217 16 330 -10 96 -9 104 13 155 12 29 26 61 29 71 5 14 16 18 49
15 41 -3 43 -5 46 -38z m-5171 -150 c11 -49 10 -59 -9 -103 -18 -40 -25 -48
-42 -43 -12 3 -44 10 -73 16 -28 6 -59 17 -69 25 -18 13 -18 15 3 59 27 55
102 108 148 104 27 -3 31 -7 42 -58z m329 -47 c-2 -3 -26 -11 -53 -18 l-48
-13 63 -1 c58 -1 62 -3 62 -24 0 -19 -27 -127 -34 -134 -1 -1 -35 8 -76 21
l-75 23 -3 52 c-3 49 0 56 38 99 23 26 46 53 53 61 9 12 17 8 44 -24 18 -21
31 -40 29 -42z m268 -118 c57 -36 123 -83 147 -106 l44 -40 -90 5 c-94 6 -192
19 -198 27 -7 7 -18 179 -12 179 3 0 52 -29 109 -65z m7155 -5 c34 -11 76 -29
92 -40 15 -12 53 -32 83 -45 66 -29 73 -39 44 -59 -17 -12 -48 -16 -129 -16
-120 0 -141 6 -252 75 -39 25 -77 45 -83 45 -6 0 -17 7 -24 15 -10 12 -10 18
0 30 19 23 188 20 269 -5z m-915 -39 c3 -5 -2 -15 -11 -22 -9 -8 -28 -40 -43
-71 l-27 -57 -42 56 c-22 30 -41 61 -41 69 0 22 151 46 164 25z m-2180 -205
c55 -8 127 -17 158 -20 91 -10 105 -20 118 -85 6 -31 14 -72 19 -91 l8 -35 13
30 c7 17 15 51 18 78 2 26 8 50 12 52 4 3 35 -13 68 -35 33 -22 64 -40 70 -40
20 0 82 -62 82 -81 0 -24 25 -35 44 -20 11 9 19 5 37 -20 12 -17 53 -51 91
-76 115 -74 73 -86 -107 -32 -55 17 -126 40 -158 51 -78 28 -84 15 -9 -19 34
-16 61 -32 62 -37 0 -8 -113 -4 -322 12 l-96 7 -57 80 c-31 44 -74 100 -94
125 -42 51 -121 165 -121 176 0 3 14 4 31 0 18 -3 77 -12 133 -20z m4066 -116
c0 -5 -9 -14 -20 -20 -24 -13 -147 -56 -210 -74 -25 -7 -74 -26 -110 -41 -101
-43 -119 -46 -151 -29 -35 18 -37 30 -6 39 12 4 83 30 157 58 74 28 155 56
180 63 54 15 160 18 160 4z m-2955 -45 c50 -8 124 -15 165 -15 131 -2 168 -12
205 -56 18 -22 31 -42 29 -46 -3 -4 -25 -10 -49 -14 -25 -3 -56 -14 -68 -24
-25 -20 -78 -19 -150 2 -32 10 -39 9 -50 -5 -16 -23 -117 -57 -166 -57 l-39 0
-6 68 c-4 37 -9 88 -12 115 -5 46 -4 47 23 47 15 0 69 -7 118 -15z m-263 -118
c28 -60 47 -111 44 -114 -12 -12 -86 21 -133 59 -91 76 -107 133 -43 155 69
24 77 18 132 -100z m2808 105 c0 -10 -95 -59 -130 -67 -25 -5 -81 27 -69 40 4
3 46 10 95 16 48 5 90 12 93 14 7 7 11 6 11 -3z m-257 -97 c28 -14 67 -28 85
-31 17 -3 32 -9 32 -13 0 -7 -98 -41 -220 -76 -80 -23 -308 -35 -323 -17 -6 8
-21 18 -34 23 -31 12 -29 27 5 34 65 13 132 38 207 75 74 38 84 40 138 35 31
-3 81 -17 110 -30z m-2713 -155 c47 -16 99 -30 116 -30 29 0 63 -24 52 -36
-20 -19 -276 56 -286 84 -6 19 27 14 118 -18z m2526 -35 c7 -29 -10 -55 -35
-55 -20 0 -149 -61 -188 -89 -34 -24 -155 -57 -238 -66 -33 -3 -72 -9 -87 -11
-54 -10 -29 21 67 83 150 99 194 120 280 136 71 14 81 14 92 1 7 -10 13 -12
18 -5 3 6 17 11 30 11 13 0 27 5 30 10 11 17 24 11 31 -15z m444 -65 c14 -5
51 -16 82 -24 31 -9 59 -20 62 -25 3 -5 -17 -11 -44 -15 -44 -6 -57 -3 -119
28 -84 43 -101 62 -45 52 21 -4 50 -11 64 -16z m-2015 -245 c-16 -13 -31 -22
-34 -20 -8 8 32 45 48 45 11 -1 7 -8 -14 -25z"/>
<path d="M4155 4850 c3 -5 8 -10 11 -10 2 0 4 5 4 10 0 6 -5 10 -11 10 -5 0
-7 -4 -4 -10z"/>
<path d="M4242 4848 c6 -18 28 -21 28 -4 0 9 -7 16 -16 16 -9 0 -14 -5 -12
-12z"/>
<path d="M4431 4270 c0 -33 1 -34 10 -11 6 16 6 28 -1 35 -7 7 -10 -1 -9 -24z"/>
<path d="M4300 4100 c0 -5 5 -10 10 -10 6 0 10 5 10 10 0 6 -4 10 -10 10 -5 0
-10 -4 -10 -10z"/>
<path d="M4400 3874 c0 -8 5 -12 10 -9 6 3 10 10 10 16 0 5 -4 9 -10 9 -5 0
-10 -7 -10 -16z"/>
<path d="M3610 3915 c0 -8 2 -15 4 -15 2 0 6 7 10 15 3 8 1 15 -4 15 -6 0 -10
-7 -10 -15z"/>
<path d="M3715 3920 c3 -5 8 -10 11 -10 2 0 4 5 4 10 0 6 -5 10 -11 10 -5 0
-7 -4 -4 -10z"/>
<path d="M3172 2370 c0 -19 2 -27 5 -17 2 9 2 25 0 35 -3 9 -5 1 -5 -18z"/>
<path d="M2290 2360 c-12 -8 -12 -10 3 -16 21 -8 35 2 21 16 -5 5 -15 6 -24 0z"/>
<path d="M2760 2361 c0 -5 6 -11 13 -13 17 -7 38 2 31 13 -7 12 -44 12 -44 0z"/>
<path d="M5090 6004 c0 -8 5 -12 10 -9 6 4 8 11 5 16 -9 14 -15 11 -15 -7z"/>
<path d="M4860 5946 c0 -2 11 -28 25 -58 18 -38 25 -46 25 -30 0 28 -29 92
-41 92 -5 0 -9 -2 -9 -4z"/>
<path d="M2970 5920 c-23 -23 -24 -33 -10 -61 14 -26 29 -24 40 6 5 14 14 25
20 25 5 0 9 10 9 23 -1 16 -2 18 -6 5 -4 -18 -24 -24 -36 -11 -4 3 -2 12 4 20
18 20 1 15 -21 -7z"/>
<path d="M5550 5905 c-18 -21 -3 -32 16 -13 10 9 12 18 6 22 -5 3 -15 -1 -22
-9z"/>
<path d="M3340 5870 c0 -11 -4 -20 -8 -20 -4 0 -13 -21 -19 -47 -6 -27 -20
-79 -31 -118 -21 -73 -23 -105 -2 -38 7 21 27 77 46 125 35 92 41 118 24 118
-5 0 -10 -9 -10 -20z"/>
<path d="M2990 5755 c0 -8 7 -15 15 -15 8 0 15 7 15 15 0 8 -7 15 -15 15 -8 0
-15 -7 -15 -15z"/>
<path d="M2542 5718 c-15 -15 -16 -45 -2 -53 6 -3 10 0 10 8 0 8 7 20 15 27 8
7 15 16 15 21 0 13 -24 11 -38 -3z"/>
<path d="M5072 5634 c2 -15 9 -29 16 -32 10 -3 13 4 10 24 -2 15 -9 29 -16 32
-10 3 -13 -4 -10 -24z"/>
<path d="M2800 5587 c0 -8 15 -34 34 -58 53 -70 79 -129 77 -174 -2 -40 -1
-40 42 -50 l44 -11 -32 46 c-43 60 -92 156 -108 211 -10 33 -18 45 -35 47 -14
2 -22 -2 -22 -11z"/>
<path d="M3241 5514 c0 -11 3 -14 6 -6 3 7 2 16 -1 19 -3 4 -6 -2 -5 -13z"/>
<path d="M5477 5506 c-3 -8 -3 -17 0 -20 7 -7 33 13 33 25 0 15 -27 10 -33 -5z"/>
<path d="M3223 5420 c-18 -112 -74 -170 -152 -155 l-34 7 31 -36 c42 -49 50
-95 23 -139 -27 -44 -26 -55 10 -97 16 -19 25 -36 19 -38 -20 -7 -10 -22 14
-22 14 0 38 -12 53 -26 25 -22 25 -24 5 -14 -35 17 -37 6 -5 -29 27 -29 30
-30 83 -22 48 7 51 9 28 15 -14 4 -36 18 -49 32 -12 13 -25 21 -29 19 -19 -11
-51 44 -55 96 l-5 54 14 -40 14 -40 1 56 c2 94 41 179 83 179 24 0 23 12 -2
35 -30 27 -42 86 -34 166 4 38 5 69 2 69 -2 0 -9 -32 -15 -70z"/>
<path d="M4785 5450 c-3 -5 -1 -10 4 -10 6 0 11 5 11 10 0 6 -2 10 -4 10 -3 0
-8 -4 -11 -10z"/>
<path d="M917 5249 l-22 -17 24 -26 c22 -23 22 -26 6 -26 -17 0 -17 -1 -1 -19
10 -11 36 -21 63 -24 29 -3 52 -12 60 -23 11 -16 10 -19 -15 -30 -15 -6 -35
-21 -46 -32 -16 -18 -17 -26 -7 -54 6 -18 21 -42 33 -55 18 -20 20 -26 9 -49
-16 -35 -6 -59 30 -74 28 -12 53 -11 189 5 l45 5 -35 -13 -35 -14 45 -7 45 -8
-30 -15 c-27 -12 -27 -13 -5 -9 122 25 131 28 124 44 -16 39 -54 177 -51 186
2 6 7 -3 11 -20 4 -16 28 -63 54 -102 l47 -73 101 -3 c116 -4 145 -15 199 -78
50 -59 136 -190 186 -285 47 -90 43 -88 254 -148 72 -20 150 -45 175 -55 25
-10 81 -28 125 -40 119 -33 115 -41 -7 -11 l-36 9 11 -27 c6 -14 17 -30 24
-34 7 -4 13 -14 13 -21 0 -8 12 -22 28 -31 15 -10 38 -29 51 -44 38 -42 92
-131 86 -141 -3 -6 1 -7 9 -4 11 4 16 0 16 -10 0 -24 65 -53 83 -37 20 16 73
128 82 171 l7 35 -32 -42 c-17 -24 -37 -43 -42 -43 -6 0 -4 8 6 18 9 10 30 48
47 83 55 112 58 321 8 501 l-12 43 -13 -85 c-12 -80 -28 -140 -38 -140 -2 0 0
16 6 36 5 21 13 89 17 153 6 92 4 125 -8 161 l-15 45 -11 -47 c-5 -25 -13 -50
-17 -54 -5 -4 -8 -17 -8 -28 0 -37 -96 -273 -107 -262 -2 2 4 21 15 43 36 70
91 258 98 334 6 73 5 78 -36 172 -24 53 -49 102 -56 108 -7 6 -42 11 -76 12
-52 0 -72 -4 -111 -27 -64 -38 -61 -65 9 -80 23 -5 34 -2 49 14 18 20 65 28
65 11 0 -5 -15 -15 -32 -21 -45 -17 -15 -24 51 -12 39 7 55 6 71 -5 24 -17 26
-36 5 -53 -22 -19 -18 -52 11 -79 21 -21 25 -31 20 -60 -3 -20 -8 -45 -9 -56
-3 -14 -17 -23 -53 -32 -27 -7 -57 -13 -67 -13 -11 0 -35 -7 -54 -16 -25 -13
-37 -14 -46 -5 -16 16 21 62 64 76 44 15 55 49 12 39 -15 -4 -43 -13 -62 -20
-41 -17 -48 -17 -34 -3 6 6 9 17 7 24 -3 6 13 19 35 30 38 17 42 17 67 0 21
-13 31 -15 50 -6 37 16 29 26 -31 37 -42 7 -63 7 -86 -3 -52 -22 -56 -14 -14
23 l40 36 -30 24 c-21 18 -37 23 -55 19 -53 -12 -55 -11 -58 24 -2 19 -10 44
-17 55 -12 17 -15 17 -20 4 -4 -9 -23 -19 -43 -23 -20 -4 -51 -20 -70 -36 -33
-30 -52 -31 -52 -3 0 26 57 128 87 155 53 47 65 53 132 66 l66 12 -90 -3
c-132 -5 -190 -28 -236 -93 -75 -108 -70 -103 -63 -59 5 28 4 37 -5 32 -6 -4
-11 -1 -11 8 0 8 5 18 10 21 6 3 10 11 10 17 0 25 -51 -38 -70 -86 -17 -42
-19 -45 -14 -16 3 19 12 47 19 62 12 25 11 26 -17 32 -17 3 -34 3 -39 0 -5 -3
-9 -1 -9 4 0 5 -35 17 -77 26 -115 25 -120 27 -283 76 -80 24 -128 33 -204 35
-54 2 -111 9 -127 16 -19 7 -61 10 -116 7 -79 -4 -88 -7 -110 -32 -12 -15 -23
-24 -23 -20 0 4 9 17 20 29 18 19 19 24 6 34 -8 7 -37 16 -66 20 -42 7 -55 5
-73 -10z m1286 -191 c-23 -25 -43 -86 -43 -130 0 -15 -5 -30 -11 -34 -8 -5 -9
5 -4 34 4 25 2 42 -4 47 -6 3 -11 10 -11 16 0 13 70 89 83 89 6 0 1 -10 -10
-22z m142 -198 c-8 -13 -65 -43 -65 -34 0 4 7 16 17 26 17 19 59 26 48 8z m8
-68 c-35 -47 -45 -35 -16 18 23 44 29 49 31 30 2 -13 -5 -34 -15 -48z m-186
-74 c-2 -18 -4 -6 -4 27 0 33 2 48 4 33 2 -15 2 -42 0 -60z m20 -140 c-3 -7
-5 -2 -5 12 0 14 2 19 5 13 2 -7 2 -19 0 -25z m42 -240 c1 -27 -3 -48 -9 -48
-6 0 -10 35 -9 88 1 73 3 81 10 47 4 -22 8 -61 8 -87z m357 -46 c-17 -16 -18
-16 -5 5 7 12 15 20 18 17 3 -2 -3 -12 -13 -22z"/>
<path d="M810 5216 c0 -45 16 -39 26 10 4 24 2 31 -10 31 -12 0 -16 -10 -16
-41z"/>
<path d="M5218 5189 c-10 -5 -18 -15 -18 -22 0 -7 -12 -30 -26 -50 -14 -21
-24 -40 -22 -42 8 -9 120 104 114 114 -9 14 -26 14 -48 0z"/>
<path d="M5011 5174 c0 -11 3 -14 6 -6 3 7 2 16 -1 19 -3 4 -6 -2 -5 -13z"/>
<path d="M3396 4934 c-9 -22 3 -32 14 -14 12 19 12 30 1 30 -5 0 -12 -7 -15
-16z"/>
<path d="M3640 4832 c0 -14 35 -42 53 -42 36 0 21 16 -45 48 -5 2 -8 -1 -8 -6z"/>
<path d="M5605 4830 c-7 -12 2 -30 16 -30 12 0 12 27 0 35 -5 3 -12 1 -16 -5z"/>
<path d="M2831 4784 c0 -11 3 -14 6 -6 3 7 2 16 -1 19 -3 4 -6 -2 -5 -13z"/>
<path d="M1180 4750 c-20 -6 -21 -8 -5 -8 11 0 31 4 45 8 20 6 21 8 5 8 -11 0
-31 -4 -45 -8z"/>
<path d="M5265 4750 c4 -6 11 -8 16 -5 14 9 11 15 -7 15 -8 0 -12 -5 -9 -10z"/>
<path d="M1128 4733 c7 -3 16 -2 19 1 4 3 -2 6 -13 5 -11 0 -14 -3 -6 -6z"/>
<path d="M2865 4707 c4 -21 2 -27 -6 -21 -8 5 -9 3 -4 -6 4 -7 14 -31 21 -54
l13 -41 -6 55 c-3 30 -10 64 -15 75 -6 15 -7 14 -3 -8z"/>
<path d="M981 4680 c-72 -37 -74 -38 -114 -24 -22 8 -42 13 -44 10 -5 -5 -23
-116 -23 -141 1 -16 11 -9 49 32 50 53 155 133 176 133 6 0 20 7 31 15 35 26
0 15 -75 -25z"/>
<path d="M3165 4710 c-3 -5 1 -10 9 -10 9 0 16 5 16 10 0 6 -4 10 -9 10 -6 0
-13 -4 -16 -10z"/>
<path d="M3580 4626 c0 -9 5 -16 10 -16 6 0 10 4 10 9 0 6 -4 13 -10 16 -5 3
-10 -1 -10 -9z"/>
<path d="M5891 4624 c0 -11 3 -14 6 -6 3 7 2 16 -1 19 -3 4 -6 -2 -5 -13z"/>
<path d="M5086 4611 c-4 -5 -2 -12 3 -15 5 -4 12 -2 15 3 4 5 2 12 -3 15 -5 4
-12 2 -15 -3z"/>
<path d="M3452 4598 c5 -15 28 -18 29 -3 0 6 -7 12 -17 13 -10 3 -15 -1 -12
-10z"/>
<path d="M5316 4551 c-4 -5 -2 -12 3 -15 5 -4 12 -2 15 3 4 5 2 12 -3 15 -5 4
-12 2 -15 -3z"/>
<path d="M1780 4433 c0 -4 10 -17 22 -30 13 -14 17 -23 9 -23 -8 0 -11 -6 -7
-15 4 -10 -2 -19 -15 -24 -20 -7 -17 -11 28 -49 75 -62 337 -211 350 -199 5 6
-75 67 -87 67 -4 0 -38 20 -74 45 -37 25 -74 45 -81 45 -17 0 -27 16 -30 45
-3 22 -2 22 41 6 24 -9 44 -20 44 -25 0 -11 59 -78 81 -91 125 -73 319 -168
262 -128 -10 7 -10 16 -1 41 11 29 10 34 -16 61 -18 19 -27 37 -24 49 5 16
-10 24 -101 56 -58 20 -116 36 -129 36 -13 0 -42 13 -65 28 -23 15 -55 34 -72
42 -16 8 -46 24 -65 36 -42 25 -70 36 -70 27z"/>
<path d="M3578 4293 c7 -3 16 -2 19 1 4 3 -2 6 -13 5 -11 0 -14 -3 -6 -6z"/>
<path d="M396 3992 c-2 -4 -1 -14 5 -22 7 -12 9 -10 9 8 0 23 -5 28 -14 14z"/>
<path d="M10 3894 c0 -11 -3 -29 -6 -42 -5 -17 -3 -21 9 -16 20 7 28 51 11 65
-11 9 -14 7 -14 -7z"/>
<path d="M3089 3843 c18 -32 46 -60 69 -72 23 -12 170 -41 209 -41 51 0 -18
83 -82 99 -23 6 -51 13 -61 17 -12 3 -5 -7 16 -26 l35 -31 -40 15 c-22 7 -64
23 -93 35 -64 25 -65 26 -53 4z"/>
<path d="M410 3821 c0 -5 5 -13 10 -16 6 -3 10 -2 10 4 0 5 -4 13 -10 16 -5 3
-10 2 -10 -4z"/>
<path d="M62 3770 c0 -14 2 -19 5 -12 2 6 2 18 0 25 -3 6 -5 1 -5 -13z"/>
<path d="M386 3764 c-3 -9 -4 -20 0 -25 3 -5 0 -9 -5 -9 -6 0 -11 -12 -11 -26
0 -36 20 -26 35 19 10 29 10 39 0 47 -9 8 -14 6 -19 -6z"/>
<path d="M150 3694 c0 -5 7 -18 15 -28 12 -16 15 -17 15 -4 0 8 -7 21 -15 28
-8 7 -15 9 -15 4z"/>
<path d="M438 3632 c-3 -11 -2 -26 3 -33 12 -20 23 15 11 37 -8 15 -10 14 -14
-4z"/>
<path d="M4696 3594 c-4 -9 -4 -19 -1 -22 6 -6 35 18 35 29 0 16 -28 10 -34
-7z"/>
<path d="M673 3389 c-21 -26 -26 -59 -9 -59 16 0 31 39 24 61 -3 8 -7 7 -15
-2z"/>
<path d="M8340 2842 c0 -9 85 -67 113 -78 34 -13 15 6 -44 46 -64 43 -69 45
-69 32z"/>
<path d="M10060 2723 c0 -5 28 -26 63 -47 34 -22 72 -49 85 -60 19 -17 22 -17
22 -3 0 9 -13 23 -28 31 -16 8 -35 22 -42 31 -12 15 -81 55 -95 55 -3 0 -5 -3
-5 -7z"/>
<path d="M10062 2488 c3 -7 32 -27 67 -44 34 -17 71 -40 83 -50 16 -14 20 -15
16 -4 -5 17 -136 109 -156 109 -8 1 -12 -5 -10 -11z"/>
<path d="M9300 1211 c0 -12 29 -35 36 -28 11 10 -5 37 -21 37 -8 0 -15 -4 -15
-9z"/>
<path d="M9376 1133 c-10 -10 15 -33 36 -33 10 0 16 4 13 10 -9 15 -41 30 -49
23z"/>
<path d="M9530 1050 c0 -11 5 -20 10 -20 6 0 10 9 10 20 0 11 -4 20 -10 20 -5
0 -10 -9 -10 -20z"/>
<path d="M10098 865 c-3 -11 -9 -29 -13 -40 -7 -19 -7 -19 9 -4 10 9 16 27 14
40 -3 22 -4 22 -10 4z"/>
<path d="M10206 863 c-12 -12 -6 -51 9 -57 11 -4 15 2 15 24 0 29 -12 45 -24
33z"/>
<path d="M9710 683 c0 -4 19 -16 41 -25 40 -17 47 -45 8 -35 -10 3 -21 2 -24
-2 -2 -5 -40 -9 -84 -9 -78 -2 -81 -1 -110 30 -27 29 -30 30 -46 15 -20 -20
-24 -21 -49 -2 -23 17 -36 19 -36 5 0 -5 11 -12 24 -16 13 -3 38 -25 56 -49
36 -48 156 -165 169 -165 5 0 14 7 21 15 22 27 65 17 141 -34 128 -84 131 -85
241 -78 74 5 106 3 133 -9 l35 -14 0 92 0 93 -45 19 c-25 10 -50 27 -56 38 -7
13 -14 17 -18 10 -4 -7 -27 -1 -69 18 -39 19 -78 30 -105 30 -24 0 -47 4 -52
9 -6 4 -44 21 -85 37 -41 16 -78 31 -82 32 -5 2 -8 0 -8 -5z"/>
</g>
</svg>
